<svg id="Layer_1" data-name="Layer 1" xmlns="http://www.w3.org/2000/svg" viewBox="0 0 595.28 841.89"><defs><style>.cls-1{fill:none;stroke:#fdfefe;stroke-miterlimit:10;}.cls-2{fill:#3e53a4;}.cls-3{font-size:40.9px;fill:#f06aa2;stroke:#f4e9ec;font-family:ArialRoundedMTBold, Arial Rounded MT Bold;}</style></defs><title>Artboard 1</title><rect class="cls-1" width="595.28" height="841.89"/><path class="cls-2" d="M344.24,260.78H200.48l9.84,18.72,123,.24h1.89s5.85,5.4-2.79,19.08H221.27l11.88,19.71h90.09s3.33,8.28-5.4,19.17H222.08l-1.2-1.44-50.76-88.44v-4.08l2.4-2.52H350S354.56,248.06,344.24,260.78Z"/><path class="cls-2" d="M230.36,349.88l95.82-.12L374,221.33l5.4-3.69h55.89s9.9,5.49,0,17.1l-45.09-.09-44.46,120.6s-2.88,9.09-8.64,13.68H237.2S226.22,359.27,230.36,349.88Z"/><text class="cls-3" transform="translate(212.15 407.94)">E-shopper</text></svg>